# xmcd CD database file
#
# Track frame offsets:
#	150
#	26715
#	44960
#	65300
#	92352
#	108130
#	118192
#	138327
#	151792
#	167540
#	185260
#	213462
#	235337
#	257315
#
# Disc length: 3781 seconds
#
# Revision: 0
# Processed by: cddbd v1.4PL0 Copyright (c) Steve Scherf et al.
# Submitted via: CDex 1.51
#
DISCID=b40ec30e
DTITLE=Various Airtists - Blue Note Tokyo We love jazz disc1
DYEAR=1900
DGENRE=Jazz
TTITLE0=Whisper not
TTITLE1=Lullaby of birdland
TTITLE2=Miles ahead
TTITLE3=My one and only love
TTITLE4=Gravy blues
TTITLE5=The organ grinder's swing
TTITLE6=No blues
TTITLE7='s wonderful
TTITLE8=Ain't Misbehavin'
TTITLE9=Falling in love with love
TTITLE10=Being me
TTITLE11=All the things you are
TTITLE12=Nefertiti
TTITLE13=Nuages
EXTD=
EXTT0=
EXTT1=
EXTT2=
EXTT3=
EXTT4=
EXTT5=
EXTT6=
EXTT7=
EXTT8=
EXTT9=
EXTT10=
EXTT11=
EXTT12=
EXTT13=
PLAYORDER=
